# This file uses centimeters as units for non-parametric coordinates.

v 70.586915 -3139.267578 -1666.406494
v 2461.597230 -2190.228027 -1466.638916
v 2257.764955 -2116.652100 -4317.769531
v 1912.755921 -2116.652100 -4955.955566
v 1387.422547 -2116.652100 -5456.292969
v 733.188111 -2116.652100 -5769.804688
v 14.093759 -2116.652100 -5865.802734
v -699.470458 -2116.652100 -5734.889648
v -1337.656310 -2116.652100 -5389.880859
v -1837.993224 -2116.652100 -4864.547363
v -2151.505309 -2116.652100 -4210.313477
v -2320.422789 -2190.228027 -1350.098877
v 3451.986146 201.490814 -1490.775146
v 3163.723939 202.125809 -4636.738281
v 2675.807191 202.125809 -5539.269043
v 1932.873719 202.125809 -6246.852539
v 1007.646485 202.125809 -6690.225586
v -9.306388 202.125809 -6825.987305
v -1018.438842 202.125809 -6640.848633
v -1920.969664 202.125809 -6152.931641
v -2628.553161 202.125809 -5409.998535
v -3071.925963 202.125809 -4484.771973
v -3310.811217 201.490814 -1325.962402
v 2806.196351 2189.616455 -1475.037354
v 2572.987123 2129.618896 -4428.752441
v 2178.254212 2129.618896 -5158.915527
v 1577.208558 2129.618896 -5731.362305
v 828.684022 2129.618896 -6090.058594
v 5.951913 2129.618896 -6199.892578
v -810.453429 2129.618896 -6050.112305
v -1540.616149 2129.618896 -5655.379395
v -2113.063170 2129.618896 -5054.333496
v -2471.759459 2129.618896 -4305.809570
v -2665.021666 2189.616455 -1341.700684
v 2058.123597 2937.910645 -1456.806152
v 1888.687196 2855.092285 -4187.825684
v 1601.897035 2855.092285 -4718.319824
v 1165.211610 2855.092285 -5134.227051
v 621.376588 2855.092285 -5394.834961
v 23.626718 2855.092285 -5474.633789
v -569.526366 2855.092285 -5365.812012
v -1100.020568 2855.092285 -5079.021973
v -1515.927672 2855.092285 -4642.336914
v -1776.535705 2855.092285 -4098.501953
v -1916.949035 2937.910645 -1359.931641
v 70.586778 3583.892090 -1408.368896
vt 0.500000 0.167864
vt 0.697202 0.287924
vt 0.736240 0.261633
vt 0.647719 0.312444
vt 0.605594 0.312444
vt 0.553133 0.312444
vt 0.495470 0.312444
vt 0.438251 0.312444
vt 0.387076 0.312444
vt 0.346955 0.312444
vt 0.300141 0.287924
vt 0.263760 0.261633
vt 0.778785 0.496733
vt 0.834094 0.497943
vt 0.708907 0.498381
vt 0.649333 0.498381
vt 0.575141 0.498381
vt 0.493594 0.498381
vt 0.412674 0.498381
vt 0.340302 0.498381
vt 0.283562 0.498381
vt 0.217255 0.496733
vt 0.165906 0.497943
vt 0.725589 0.670307
vt 0.770288 0.694377
vt 0.669009 0.652943
vt 0.620813 0.652943
vt 0.560790 0.652943
vt 0.494817 0.652943
vt 0.429351 0.652943
vt 0.370801 0.652943
vt 0.324898 0.652943
vt 0.271301 0.670307
vt 0.229712 0.694377
vt 0.663966 0.735637
vt 0.696375 0.768311
vt 0.622792 0.711117
vt 0.587775 0.711117
vt 0.544167 0.711117
vt 0.496234 0.711117
vt 0.448671 0.711117
vt 0.406132 0.711117
vt 0.372781 0.711117
vt 0.333907 0.735637
vt 0.303625 0.768311
vt 0.500000 0.832136
vn -0.005105 -0.996166 -0.087330
vn 0.819521 -0.552133 -0.153412
vn 0.808417 -0.583639 -0.076340
vn 0.608290 -0.638994 -0.470819
vn 0.423807 -0.660736 -0.619529
vn 0.209871 -0.673459 -0.708807
vn -0.017807 -0.677225 -0.735561
vn -0.244340 -0.672075 -0.699009
vn -0.454766 -0.657954 -0.600237
vn -0.633195 -0.634819 -0.442797
vn -0.822629 -0.552156 -0.135668
vn -0.812589 -0.579189 -0.065114
vn 0.981290 -0.071444 -0.178789
vn 0.993472 -0.073508 -0.087230
vn 0.792698 -0.066504 -0.605977
vn 0.566643 -0.066504 -0.821275
vn 0.285122 -0.066504 -0.956181
vn -0.024309 -0.066505 -0.997490
vn -0.331361 -0.066505 -0.941157
vn -0.605977 -0.066504 -0.792698
vn -0.821275 -0.066504 -0.566643
vn -0.985093 -0.071674 -0.156380
vn -0.994639 -0.073425 -0.072819
vn 0.889671 0.427445 -0.160552
vn 0.894335 0.440030 -0.080868
vn 0.720358 0.421711 -0.550677
vn 0.514933 0.421711 -0.746327
vn 0.259102 0.421711 -0.868922
vn -0.022091 0.421711 -0.906461
vn -0.301122 0.421711 -0.855269
vn -0.550677 0.421711 -0.720358
vn -0.746327 0.421711 -0.514933
vn -0.892233 0.428970 -0.141088
vn -0.895975 0.438838 -0.068198
vn 0.554012 0.825337 -0.109045
vn 0.528317 0.846937 -0.059823
vn 0.361148 0.888168 -0.284131
vn 0.242630 0.901387 -0.358654
vn 0.117645 0.908504 -0.400974
vn -0.009920 0.910529 -0.413327
vn -0.137281 0.907750 -0.396413
vn -0.261562 0.899772 -0.349278
vn -0.378589 0.885466 -0.269484
vn -0.557095 0.824603 -0.098364
vn -0.533695 0.843971 -0.053686
vn -0.005009 0.997568 -0.069516
f 1/1/1 3/2/2 2/3/3
f 1/1/1 4/4/4 3/2/2
f 1/1/1 5/5/5 4/4/4
f 1/1/1 6/6/6 5/5/5
f 1/1/1 7/7/7 6/6/6
f 1/1/1 8/8/8 7/7/7
f 1/1/1 9/9/9 8/8/8
f 1/1/1 10/10/10 9/9/9
f 1/1/1 11/11/11 10/10/10
f 1/1/1 12/12/12 11/11/11
f 2/3/3 3/2/2 14/13/13 13/14/14
f 3/2/2 4/4/4 15/15/15 14/13/13
f 4/4/4 5/5/5 16/16/16 15/15/15
f 5/5/5 6/6/6 17/17/17 16/16/16
f 6/6/6 7/7/7 18/18/18 17/17/17
f 7/7/7 8/8/8 19/19/19 18/18/18
f 8/8/8 9/9/9 20/20/20 19/19/19
f 9/9/9 10/10/10 21/21/21 20/20/20
f 10/10/10 11/11/11 22/22/22 21/21/21
f 11/11/11 12/12/12 23/23/23 22/22/22
f 13/14/14 14/13/13 25/24/24 24/25/25
f 14/13/13 15/15/15 26/26/26 25/24/24
f 15/15/15 16/16/16 27/27/27 26/26/26
f 16/16/16 17/17/17 28/28/28 27/27/27
f 17/17/17 18/18/18 29/29/29 28/28/28
f 18/18/18 19/19/19 30/30/30 29/29/29
f 19/19/19 20/20/20 31/31/31 30/30/30
f 20/20/20 21/21/21 32/32/32 31/31/31
f 21/21/21 22/22/22 33/33/33 32/32/32
f 22/22/22 23/23/23 34/34/34 33/33/33
f 24/25/25 25/24/24 36/35/35 35/36/36
f 25/24/24 26/26/26 37/37/37 36/35/35
f 26/26/26 27/27/27 38/38/38 37/37/37
f 27/27/27 28/28/28 39/39/39 38/38/38
f 28/28/28 29/29/29 40/40/40 39/39/39
f 29/29/29 30/30/30 41/41/41 40/40/40
f 30/30/30 31/31/31 42/42/42 41/41/41
f 31/31/31 32/32/32 43/43/43 42/42/42
f 32/32/32 33/33/33 44/44/44 43/43/43
f 33/33/33 34/34/34 45/45/45 44/44/44
f 35/36/36 36/35/35 46/46/46
f 36/35/35 37/37/37 46/46/46
f 37/37/37 38/38/38 46/46/46
f 38/38/38 39/39/39 46/46/46
f 39/39/39 40/40/40 46/46/46
f 40/40/40 41/41/41 46/46/46
f 41/41/41 42/42/42 46/46/46
f 42/42/42 43/43/43 46/46/46
f 43/43/43 44/44/44 46/46/46
f 44/44/44 45/45/45 46/46/46
