# This file uses centimeters as units for non-parametric coordinates.

v 2.278482 16.233682 -9.228860
v 12.527146 9.385187 -12.320562
v -6.717046 17.411039 -7.216848
v 6.374372 -1.338968 -10.547088
v -12.071923 11.287158 -4.528967
v -7.540900 0.228466 -4.075821
v 12.032018 7.047213 -7.964488
v 5.625076 16.352897 -5.751165
v -5.077643 15.501868 5.501725
v -15.253931 9.873489 -1.593369
v -16.118766 3.061195 -1.850852
v -2.872068 6.577903 6.208146
v 5.278721 15.587952 1.527837
v -13.011520 9.214801 5.188254
v -14.328400 3.144928 5.107562
v 8.429079 0.776403 -0.024548
v -8.864530 12.957715 4.425192
v 2.590238 6.890169 4.411864
vt 0.442932 0.407259
vt 0.393218 0.363890
vt 0.325761 0.454598
vt 0.324322 0.536676
vt 0.158092 0.385649
vt 0.652635 0.659471
vt 0.662126 0.711951
vt 0.912508 0.818754
vt 0.889452 0.886275
vt 0.756462 0.903375
vt 0.694357 0.877621
vt 0.386425 0.582654
vt 0.482489 0.553460
vt 0.128338 0.426942
vt 0.622881 0.687499
vt 0.163342 0.906000
vt 0.139241 0.960905
vt 0.122014 0.944643
vt 0.143948 0.895906
vt 0.883988 0.783048
vt 0.772608 0.873801
vt 0.731919 0.783436
vt 0.390716 0.618441
vt 0.448264 0.613356
vt 0.208457 0.573143
vt 0.300329 0.513642
vt 0.592661 0.780393
vt 0.526259 0.769564
vt 0.443163 0.840931
vt 0.431936 0.889425
vt 0.366914 0.901604
vt 0.309364 0.911597
vt 0.233072 0.633039
vt 0.837787 0.778325
vt 0.356273 0.838895
vt 0.294827 0.608874
vt 0.231414 0.416796
vt 0.703394 0.793976
vt 0.384762 0.812764
vt 0.372533 0.861606
vt 0.305709 0.846402
vt 0.202255 0.733742
vt 0.159119 0.636900
vt 0.549556 0.625281
vt 0.502190 0.671197
vt 0.202618 0.682784
vt 0.295796 0.655329
vt 0.285577 0.749431
vt 0.257051 0.781566
vt 0.233087 0.830408
vt 0.182521 0.828975
vn -0.042066 0.312796 -0.948888
vn -0.042066 0.312796 -0.948888
vn -0.042066 0.312796 -0.948888
vn 0.917241 -0.343198 -0.202199
vn 0.917241 -0.343198 -0.202199
vn 0.917241 -0.343198 -0.202199
vn -0.690232 0.090836 -0.717864
vn -0.690232 0.090836 -0.717864
vn -0.690232 0.090836 -0.717864
vn 0.325021 0.863488 -0.385681
vn 0.325021 0.863488 -0.385681
vn 0.325021 0.863488 -0.385681
vn 0.325021 0.863488 -0.385681
vn 0.256785 0.964402 0.063175
vn 0.256785 0.964402 0.063175
vn 0.256785 0.964402 0.063175
vn -0.933870 0.284700 -0.216408
vn -0.933870 0.284700 -0.216408
vn -0.933870 0.284700 -0.216408
vn -0.649494 0.070824 -0.757061
vn -0.649494 0.070824 -0.757061
vn -0.649494 0.070824 -0.757061
vn -0.687751 -0.060345 -0.723435
vn -0.687751 -0.060345 -0.723435
vn -0.687751 -0.060345 -0.723435
vn -0.441009 -0.732720 -0.518298
vn -0.441009 -0.732720 -0.518298
vn -0.441009 -0.732720 -0.518298
vn 0.428819 -0.868845 -0.247433
vn 0.428819 -0.868845 -0.247433
vn 0.428819 -0.868845 -0.247433
vn 0.216919 0.923344 -0.316831
vn 0.216919 0.923344 -0.316831
vn 0.216919 0.923344 -0.316831
vn -0.523048 0.843616 0.121378
vn -0.523048 0.843616 0.121378
vn -0.523048 0.843616 0.121378
vn -0.997143 0.006647 0.075249
vn -0.997143 0.006647 0.075249
vn -0.997143 0.006647 0.075249
vn -0.428748 -0.893786 -0.131612
vn -0.428748 -0.893786 -0.131612
vn -0.428748 -0.893786 -0.131612
vn 0.465935 0.881829 0.072682
vn 0.465935 0.881829 0.072682
vn 0.465935 0.881829 0.072682
vn -0.111658 0.974020 0.197020
vn -0.111658 0.974020 0.197020
vn -0.111658 0.974020 0.197020
vn -0.412352 -0.892289 0.183808
vn -0.412353 -0.892289 0.183808
vn -0.412353 -0.892289 0.183808
vn 0.394896 -0.915731 0.074124
vn 0.394896 -0.915731 0.074124
vn 0.394896 -0.915731 0.074124
vn 0.795976 -0.602768 -0.055612
vn 0.795976 -0.602768 -0.055612
vn 0.795976 -0.602768 -0.055612
vn -0.729329 0.099371 0.676908
vn -0.729329 0.099371 0.676908
vn -0.729329 0.099371 0.676908
vn -0.390449 0.826319 0.405889
vn -0.390449 0.826319 0.405889
vn -0.390449 0.826319 0.405889
vn -0.812618 -0.340341 0.473096
vn -0.812618 -0.340341 0.473096
vn -0.812618 -0.340341 0.473096
vn 0.531818 -0.198354 0.823302
vn 0.531818 -0.198354 0.823302
vn 0.531818 -0.198354 0.823302
vn 0.233659 0.352914 0.906011
vn 0.233659 0.352914 0.906011
vn 0.233659 0.352914 0.906011
vn -0.151410 -0.140629 0.978416
vn -0.151410 -0.140629 0.978416
vn -0.151410 -0.140629 0.978416
vn -0.151410 -0.140629 0.978416
vn 0.315452 -0.401260 0.859931
vn 0.315452 -0.401260 0.859931
vn 0.315452 -0.401260 0.859931
vn 0.424077 -0.075354 0.902486
vn 0.424077 -0.075354 0.902486
vn 0.424077 -0.075354 0.902486
vn -0.089561 0.056580 0.994373
vn -0.089561 0.056580 0.994373
vn -0.089561 0.056580 0.994373
vn -0.197569 0.143291 -0.969760
vn -0.197569 0.143291 -0.969760
vn -0.197569 0.143291 -0.969760
vn 0.274178 -0.000365 0.961679
vn 0.274178 -0.000365 0.961679
vn 0.274178 -0.000365 0.961679
f 4/1/1 1/3/2 2/2/3
f 4/6/4 2/7/5 7/15/6
f 3/4/7 4/1/8 5/12/9
f 2/16/10 1/17/11 8/18/12 7/19/13
f 1/8/14 3/9/15 8/20/16
f 3/10/17 5/11/18 9/22/19
f 5/12/20 11/24/21 10/23/22
f 5/12/23 4/1/24 11/24/25
f 4/1/26 6/13/27 11/24/28
f 6/25/29 4/14/30 12/26/31
f 8/20/32 3/9/33 13/34/34
f 5/29/35 10/30/36 14/40/37
f 10/31/38 11/32/39 14/35/40
f 11/33/41 6/25/42 12/26/43
f 7/15/44 8/27/45 13/28/46
f 3/9/47 9/21/48 13/34/49
f 11/33/50 12/26/51 15/36/52
f 12/26/53 4/14/54 16/37/55
f 4/14/56 7/5/57 16/37/58
f 9/22/59 5/11/60 17/38/61
f 5/29/62 14/40/63 17/39/64
f 14/35/65 11/32/66 15/41/67
f 16/44/68 7/15/69 13/28/70
f 13/47/71 9/48/72 18/46/73
f 14/50/74 15/51/75 12/42/76 17/49/77
f 12/42/78 16/43/79 18/46/80
f 16/44/81 13/28/82 18/45/83
f 9/48/84 17/49/85 12/42/86
f 3/4/87 1/3/88 4/1/89
f 12/42/90 18/46/91 9/48/92
